<svg width="40" height="26" viewBox="0 0 40 26" fill="none" xmlns="http://www.w3.org/2000/svg">
<path d="M17.1429 23.1112H38.5714C39.36 23.1112 40 23.7583 40 24.5556C40 25.3529 39.36 26 38.5714 26H17.1429C16.3543 26 15.7143 25.3529 15.7143 24.5556C15.7143 23.7583 16.3543 23.1112 17.1429 23.1112ZM1.42856 0H38.5714C39.36 0 40 0.647112 40 1.44444C40 2.24176 39.36 2.88887 38.5714 2.88887H1.42856C0.639999 2.88887 0 2.24176 0 1.44444C0 0.647112 0.639999 0 1.42856 0ZM8.78856 11.5556H38.5714C39.36 11.5556 40 12.2027 40 13.0001C40 13.7975 39.36 14.4445 38.5714 14.4445H8.78856C8 14.4445 7.36 13.7974 7.36 13.0001C7.36 12.2027 8 11.5556 8.78856 11.5556Z" fill="#432362"/>
</svg>
