<svg width="31" height="31" viewBox="0 0 31 31" fill="none" xmlns="http://www.w3.org/2000/svg">
<path d="M4.54102 31H14.6523V19.9805H11.0195V16.3477H14.6523V11.8066C14.6523 9.3027 16.6894 7.26562 19.1934 7.26562H23.7344V10.8984H20.1016C19.0999 10.8984 18.2852 11.7132 18.2852 12.7148V16.3477H23.5705L22.965 19.9805H18.2852V31H26.459C28.9629 31 31 28.9629 31 26.459V4.54102C31 2.03707 28.9629 0 26.459 0H4.54102C2.03707 0 0 2.03707 0 4.54102V26.459C0 28.9629 2.03707 31 4.54102 31ZM1.81641 4.54102C1.81641 3.0387 3.0387 1.81641 4.54102 1.81641H26.459C27.9613 1.81641 29.1836 3.0387 29.1836 4.54102V26.459C29.1836 27.9613 27.9613 29.1836 26.459 29.1836H20.1016V21.7969H24.5037L25.7147 14.5312H20.1016V12.7148H25.5508V5.44922H19.1934C15.6878 5.44922 12.8359 8.30107 12.8359 11.8066V14.5312H9.20312V21.7969H12.8359V29.1836H4.54102C3.0387 29.1836 1.81641 27.9613 1.81641 26.459V4.54102Z" fill="black"/>
</svg>
