<svg width="31" height="31" viewBox="0 0 31 31" fill="none" xmlns="http://www.w3.org/2000/svg">
<path d="M15.8057 31C15.7031 31 15.6004 31 15.497 30.9995C13.067 31.0054 10.8217 30.9437 8.63819 30.8108C6.63629 30.689 4.80893 29.9972 3.35338 28.8104C1.94893 27.6652 0.989837 26.1167 0.502842 24.2086C0.0789978 22.5473 0.0565284 20.9166 0.035005 19.3393C0.0193946 18.2075 0.00331128 16.8665 0 15.5028C0.00331128 14.1334 0.0193946 12.7924 0.035005 11.6607C0.0565284 10.0836 0.0789978 8.45285 0.502842 6.79135C0.989837 4.88317 1.94893 3.33473 3.35338 2.18954C4.80893 1.00272 6.63629 0.310926 8.63843 0.189123C10.822 0.0564394 13.0677 -0.00552675 15.503 0.000386055C17.9337 -0.00481721 20.1783 0.0564394 22.3618 0.189123C24.3637 0.310926 26.1911 1.00272 27.6466 2.18954C29.0513 3.33473 30.0102 4.88317 30.4972 6.79135C30.921 8.45261 30.9435 10.0836 30.965 11.6607C30.9806 12.7924 30.9969 14.1334 31 15.4971V15.5028C30.9969 16.8665 30.9806 18.2075 30.965 19.3393C30.9435 20.9163 30.9212 22.5471 30.4972 24.2086C30.0102 26.1167 29.0513 27.6652 27.6466 28.8104C26.1911 29.9972 24.3637 30.689 22.3618 30.8108C20.2707 30.938 18.1227 31 15.8057 31ZM15.497 28.5776C17.8876 28.5833 20.0825 28.523 22.2147 28.3934C23.7284 28.3014 25.0409 27.8102 26.1161 26.9334C27.11 26.1229 27.7944 25.0047 28.1504 23.6097C28.5033 22.2268 28.5236 20.742 28.5433 19.3061C28.5586 18.182 28.5747 16.8504 28.578 15.5C28.5747 14.1492 28.5586 12.8179 28.5433 11.6938C28.5236 10.2579 28.5033 8.77309 28.1504 7.38996C27.7944 5.99502 27.11 4.87679 26.1161 4.06626C25.0409 3.18975 23.7284 2.69851 22.2147 2.60651C20.0825 2.47667 17.8876 2.41683 15.5027 2.42203C13.1127 2.41635 10.9175 2.47667 8.78531 2.60651C7.27158 2.69851 5.95913 3.18975 4.88391 4.06626C3.89005 4.87679 3.20556 5.99502 2.8496 7.38996C2.49671 8.77309 2.47637 10.2577 2.45674 11.6938C2.44136 12.8189 2.42528 14.1511 2.42197 15.5028C2.42528 16.8485 2.44136 18.1811 2.45674 19.3061C2.47637 20.742 2.49671 22.2268 2.8496 23.6097C3.20556 25.0047 3.89005 26.1229 4.88391 26.9334C5.95913 27.8099 7.27158 28.3012 8.78531 28.3932C10.9175 28.523 13.1132 28.5836 15.497 28.5776ZM15.4393 23.0683C11.2662 23.0683 7.87068 19.6732 7.87068 15.5C7.87068 11.3267 11.2662 7.93158 15.4393 7.93158C19.6127 7.93158 23.008 11.3267 23.008 15.5C23.008 19.6732 19.6127 23.0683 15.4393 23.0683ZM15.4393 10.3535C12.6016 10.3535 10.2927 12.6623 10.2927 15.5C10.2927 18.3376 12.6016 20.6465 15.4393 20.6465C18.2773 20.6465 20.586 18.3376 20.586 15.5C20.586 12.6623 18.2773 10.3535 15.4393 10.3535ZM23.8557 5.50969C22.8526 5.50969 22.0392 6.32282 22.0392 7.32611C22.0392 8.32939 22.8526 9.14252 23.8557 9.14252C24.859 9.14252 25.6721 8.32939 25.6721 7.32611C25.6721 6.32282 24.859 5.50969 23.8557 5.50969Z" fill="black"/>
</svg>
