<svg width="59" height="59" viewBox="0 0 59 59" fill="none" xmlns="http://www.w3.org/2000/svg">
<g clip-path="url(#clip0)">
<path d="M53.877 18.3425L52.6438 12.1791L49.2103 13.5536C46.1977 14.7595 42.9846 15.8892 39.6382 16.9195C38.1602 12.897 35.927 8.89898 32.9848 5.01184L29.1915 0L26.6987 2.73224C22.7254 7.08747 18.2415 11.321 12.991 15.6747C8.84715 19.1108 5.91335 23.9119 4.73 29.1936C3.51011 34.6388 4.15197 40.1778 6.58633 45.2117L13.2543 58.9999H20.5476C26.9231 58.9999 32.5626 58.0222 37.3093 56.0939C41.8097 54.2655 45.534 51.579 48.3788 48.1089C54.3157 40.8667 56.2682 30.2954 53.877 18.3425ZM47.9916 17.7292C45.7174 22.3124 42.8725 26.8598 39.4977 31.2929C36.0287 35.8497 31.9984 40.2962 27.5188 44.509C22.8464 48.9033 18.6447 52.13 16.067 53.9855V43.0396C16.067 38.2363 17.6415 33.7135 20.6203 29.9602C23.5118 26.3168 27.5756 23.7007 32.0632 22.5937C33.8835 22.1447 35.6727 21.6717 37.4031 21.1829L37.4061 21.1922L38.9864 20.7263C39.0014 20.722 39.0165 20.7176 39.0315 20.7132V20.7131C42.1331 19.7983 45.1346 18.7973 47.9916 17.7292ZM8.10341 29.9495C9.12026 25.4106 11.6398 21.2862 15.1977 18.336C20.4373 13.9913 24.9381 9.75576 28.9431 5.40019L30.2284 7.09819C32.9115 10.6432 34.9524 14.2685 36.3128 17.8983C34.6663 18.3617 32.9656 18.8104 31.2351 19.2373C26.0087 20.5265 21.2772 23.5715 17.9124 27.8112C14.4435 32.1822 12.6099 37.448 12.6099 43.0397V49.727L9.69851 43.7067C7.60732 39.3826 7.0558 34.6254 8.10341 29.9495ZM45.7051 45.9174C43.2303 48.9362 39.9679 51.2825 36.0081 52.8911C31.6765 54.6508 26.4749 55.5429 20.5476 55.5429H19.7929C22.4053 53.5798 25.9366 50.7377 29.8264 47.0846C34.4553 42.7373 38.6242 38.1425 42.2173 33.4278C45.5416 29.0656 48.3765 24.5897 50.6852 20.0687C52.5582 30.5495 50.8039 39.6976 45.7051 45.9174Z" fill="#806F76"/>
</g>
<defs>
<clipPath id="clip0">
<rect width="59" height="59" fill="white"/>
</clipPath>
</defs>
</svg>
