<svg width="149" height="149" viewBox="0 0 149 149" fill="none" xmlns="http://www.w3.org/2000/svg">
<path d="M123.789 41.1697V68.1953H116.702V41.1697C116.702 39.2423 118.266 37.687 120.185 37.687C122.234 37.687 123.789 39.2423 123.789 41.1697Z" fill="#EDB256"/>
<path d="M64.2316 66.0879C64.2567 76.1179 60.9537 85.872 54.8621 93.8367L50.1126 100.037L45.3463 93.8534C39.2045 85.9139 35.8765 76.1765 35.8514 66.1381L48.6953 83.652C47.6124 89.7603 49.0046 93.8116 49.0046 93.8116C49.4771 88.0838 51.2498 84.2791 52.3661 82.4144L64.2316 66.0879Z" fill="white"/>
<path d="M64.1856 44.8406C64.2107 54.8706 60.9245 64.6331 54.8162 72.5894L50.075 78.7981L45.3004 72.6145C42.2399 68.651 39.8568 64.2276 38.2555 59.5407C36.6542 54.8706 35.8138 49.9162 35.8138 44.8991L48.7329 62.5175C47.7169 68.5297 49.0841 72.4974 49.0841 72.4974C49.6444 65.8414 51.9397 61.7984 52.9222 60.3435C53.1898 59.9379 53.3612 59.733 53.3612 59.733L64.1856 44.8406Z" fill="white"/>
<path d="M50.0625 55.3429H49.9413C48.779 53.959 39.8778 42.5158 49.9998 27.7236C60.126 42.5199 51.2248 53.959 50.0625 55.3429Z" fill="white"/>
<path d="M0 0V149H149V0H0ZM49.0047 93.8117C49.4771 88.0838 51.2498 84.2792 52.3662 82.4145L64.2275 66.088C64.2525 76.118 60.9496 85.8721 54.858 93.8368L50.1085 100.037L45.3422 93.8535C39.2004 85.9139 35.8724 76.1766 35.8473 66.1381L48.6911 83.6521C47.6124 89.7604 49.0047 93.8117 49.0047 93.8117ZM50.0039 27.7237C60.1301 42.5201 51.2248 53.9591 50.0625 55.343H49.9412C48.7831 53.9591 39.8777 42.5201 50.0039 27.7237ZM48.7371 62.5175C47.7211 68.5296 49.0883 72.4973 49.0883 72.4973C49.6486 65.8413 51.9439 61.7983 52.9264 60.3434C53.194 59.9378 53.3654 59.733 53.3654 59.733L64.1856 44.8447C64.2107 54.8747 60.9245 64.6372 54.8162 72.5935L50.075 78.8022L45.3004 72.6186C42.2399 68.6551 39.8568 64.2316 38.2555 59.5448C36.6542 54.8747 35.8139 49.9203 35.8139 44.9032L48.7371 62.5175ZM35.9058 122.008H14.5204V27.7154H25.211V111.317H35.9017V122.008H35.9058ZM54.904 115.084L50.1544 121.276L45.3798 115.109C39.2548 107.17 35.9184 97.424 35.8933 87.394L48.712 104.858C47.6041 111.025 49.0047 115.118 49.0047 115.118C49.4939 109.319 51.2917 105.51 52.4121 103.67C52.4205 103.645 52.4289 103.62 52.4456 103.603L64.2818 87.3355C64.2985 97.3571 61.004 107.128 54.904 115.084ZM98.3271 63.1446C98.3271 67.3506 96.2868 71.0758 93.0466 73.3544V73.5969C96.291 75.8755 98.3271 79.6007 98.3271 83.8068V122.008H87.6365V82.3643C87.6365 80.4453 86.0812 78.89 84.0325 78.89H80.5582V122.012H69.8633V27.7154H84.0325C91.9638 27.7154 98.3271 34.0788 98.3271 41.8846V63.1446ZM134.484 122.008H123.793V78.89H116.707V122.012H106.024V41.1696C106.024 33.3596 112.388 26.9921 120.193 26.9921C128.125 26.9921 134.488 33.3555 134.488 41.1696V122.008H134.484Z" fill="#EFBD28"/>
<path d="M120.185 26.9922C112.383 26.9922 106.016 33.3556 106.016 41.1697V122.012H116.698V78.8901H123.785V122.012H134.475V41.1697C134.484 33.3597 128.116 26.9922 120.185 26.9922ZM123.789 68.1953H116.702V41.1697C116.702 39.2423 118.266 37.687 120.185 37.687C122.234 37.687 123.789 39.2423 123.789 41.1697V68.1953Z" fill="white"/>
<path d="M98.3272 63.1446V41.8804C98.3272 34.0787 91.9638 27.7112 84.0326 27.7112H69.8634V122.004H80.554V78.89H84.0284C86.077 78.89 87.6324 80.4453 87.6324 82.3643V122.012H98.323V83.8109C98.323 79.6049 96.2827 75.8797 93.0425 73.6011V73.3586C96.2911 71.0758 98.3272 67.3548 98.3272 63.1446ZM87.6365 64.5912C87.6365 66.5102 86.0812 68.1951 84.0326 68.1951H80.5582V38.3976H84.0326C86.0812 38.3976 87.6365 39.9613 87.6365 41.8804V64.5912Z" fill="white"/>
<path d="M64.2818 87.3354C64.2986 97.3571 61.004 107.128 54.904 115.084L50.1545 121.276L45.3798 115.109C39.2548 107.17 35.9184 97.424 35.8933 87.394L48.712 104.858C47.6041 111.025 49.0047 115.118 49.0047 115.118C49.4939 109.319 51.2917 105.51 52.4122 103.67C52.4205 103.645 52.4289 103.62 52.4456 103.603L64.2818 87.3354Z" fill="white"/>
<path d="M35.9058 111.317V122.008H14.5204V27.7153H25.211V111.317H35.9058Z" fill="white"/>
<path d="M87.6364 41.8846V64.5954C87.6364 66.5145 86.0811 68.1994 84.0325 68.1994H80.5581V38.3977H84.0325C86.0811 38.3977 87.6364 39.9656 87.6364 41.8846Z" fill="#EDB256"/>
</svg>
