<svg width="301" height="301" viewBox="0 0 301 301" fill="none" xmlns="http://www.w3.org/2000/svg">
<path d="M250.07 83.1681V137.763H235.754V83.1681C235.754 79.2745 238.913 76.1326 242.79 76.1326C246.928 76.1326 250.07 79.2745 250.07 83.1681Z" fill="#EDB256"/>
<path d="M129.756 133.507C129.807 153.769 123.135 173.473 110.829 189.563L101.234 202.088L91.6056 189.597C79.1984 173.558 72.4754 153.887 72.4247 133.608L98.3709 168.988C96.1834 181.328 98.9959 189.512 98.9959 189.512C99.9503 177.941 103.531 170.255 105.787 166.488L129.756 133.507Z" fill="white"/>
<path d="M129.664 90.584C129.714 110.846 123.076 130.568 110.736 146.64L101.158 159.183L91.5128 146.691C85.3303 138.684 80.5161 129.748 77.2812 120.28C74.0464 110.846 72.3488 100.837 72.3488 90.7022L98.447 126.294C96.3946 138.439 99.1565 146.455 99.1565 146.455C100.288 133.008 104.925 124.841 106.91 121.902C107.451 121.083 107.797 120.669 107.797 120.669L129.664 90.584Z" fill="white"/>
<path d="M101.133 111.8H100.888C98.5401 109.005 80.5585 85.8877 101.006 56.0056C121.463 85.8962 103.481 109.005 101.133 111.8Z" fill="white"/>
<path d="M0 0V301H301V0H0ZM98.996 189.512C99.9504 177.941 103.532 170.255 105.787 166.488L129.748 133.507C129.799 153.769 123.126 173.473 110.821 189.563L101.226 202.088L91.5973 189.597C79.1901 173.558 72.467 153.887 72.4164 133.608L98.3626 168.988C96.1835 181.328 98.996 189.512 98.996 189.512ZM101.015 56.0057C121.471 85.8962 103.481 109.005 101.133 111.8H100.888C98.5484 109.005 80.5583 85.8962 101.015 56.0057ZM98.4555 126.294C96.4031 138.439 99.165 146.454 99.165 146.454C100.297 133.008 104.934 124.841 106.918 121.902C107.459 121.082 107.805 120.669 107.805 120.669L129.664 90.5922C129.714 110.854 123.076 130.576 110.736 146.649L101.158 159.191L91.5128 146.699C85.3303 138.692 80.5161 129.757 77.2813 120.289C74.0464 110.854 72.3488 100.846 72.3488 90.7105L98.4555 126.294ZM72.5346 246.472H29.3331V55.9888H50.9296V224.876H72.5262V246.472H72.5346ZM110.913 232.486L101.319 244.994L91.6733 232.536C79.2999 216.497 72.5599 196.81 72.5093 176.548L98.4048 211.827C96.1666 224.285 98.996 232.553 98.996 232.553C99.9842 220.839 103.616 213.144 105.88 209.428C105.896 209.377 105.913 209.327 105.947 209.293L129.858 176.429C129.892 196.674 123.236 216.413 110.913 232.486ZM198.634 127.561C198.634 136.057 194.512 143.583 187.967 148.186V148.676C194.521 153.279 198.634 160.804 198.634 169.301V246.472H177.037V166.387C177.037 162.51 173.896 159.368 169.757 159.368H162.738V246.481H141.133V55.9888H169.757C185.779 55.9888 198.634 68.8437 198.634 84.6124V127.561ZM271.675 246.472H250.079V159.368H235.763V246.481H214.183V83.1682C214.183 67.391 227.038 54.5276 242.807 54.5276C258.829 54.5276 271.684 67.3825 271.684 83.1682V246.472H271.675Z" fill="#EFBD28"/>
<path d="M242.79 54.5276C227.03 54.5276 214.166 67.3825 214.166 83.1681V246.481H235.746V159.368H250.062V246.481H271.658V83.1681C271.675 67.3909 258.812 54.5276 242.79 54.5276ZM250.07 137.763H235.754V83.1681C235.754 79.2745 238.913 76.1326 242.79 76.1326C246.928 76.1326 250.07 79.2745 250.07 83.1681V137.763Z" fill="white"/>
<path d="M198.634 127.561V84.6041C198.634 68.8438 185.779 55.9805 169.757 55.9805H141.133V246.464H162.73V159.368H169.749C173.887 159.368 177.029 162.51 177.029 166.387V246.481H198.626V169.309C198.626 160.813 194.504 153.287 187.958 148.684V148.194C194.521 143.583 198.634 136.066 198.634 127.561ZM177.038 130.483C177.038 134.36 173.896 137.763 169.757 137.763H162.738V77.5685H169.757C173.896 77.5685 177.038 80.7274 177.038 84.6041V130.483Z" fill="white"/>
<path d="M129.858 176.429C129.892 196.675 123.236 216.413 110.913 232.486L101.319 244.994L91.6733 232.536C79.2999 216.497 72.56 196.81 72.5093 176.548L98.4048 211.827C96.1666 224.285 98.9961 232.553 98.9961 232.553C99.9842 220.839 103.616 213.144 105.88 209.428C105.896 209.377 105.913 209.327 105.947 209.293L129.858 176.429Z" fill="white"/>
<path d="M72.5347 224.876V246.472H29.3333V55.9888H50.9298V224.876H72.5347Z" fill="white"/>
<path d="M177.037 84.6126V130.492C177.037 134.368 173.895 137.772 169.757 137.772H162.738V77.5686H169.757C173.895 77.5686 177.037 80.7359 177.037 84.6126Z" fill="#EDB256"/>
</svg>
