<svg width="45" height="45" viewBox="0 0 45 45" fill="none" xmlns="http://www.w3.org/2000/svg">
<rect width="45" height="45" rx="22.5" fill="black"/>
<g clip-path="url(#clip0)">
<path d="M31.0499 21.55H23.4501V13.9499C23.4501 13.4257 23.0244 13 22.4999 13C21.9757 13 21.55 13.4257 21.55 13.9499V21.55H13.9499C13.4257 21.55 13 21.9757 13 22.4999C13 23.0244 13.4257 23.4501 13.9499 23.4501H21.55V31.0499C21.55 31.5744 21.9757 32.0001 22.4999 32.0001C23.0244 32.0001 23.4501 31.5744 23.4501 31.0499V23.4501H31.0499C31.5744 23.4501 32.0001 23.0244 32.0001 22.4999C32.0001 21.9757 31.5744 21.55 31.0499 21.55Z" fill="#EFBD28"/>
</g>
<defs>
<clipPath id="clip0">
<rect width="19" height="19" fill="white" transform="translate(13 13)"/>
</clipPath>
</defs>
</svg>
