<svg width="66" height="66" viewBox="0 0 66 66" fill="none" xmlns="http://www.w3.org/2000/svg">
<g clip-path="url(#clip0)">
<path d="M33 0C20.8513 0 10.9678 9.8835 10.9678 22.0323C10.9678 34.1804 20.8513 44.0645 33 44.0645C45.1482 44.0645 55.0323 34.1804 55.0323 22.0323C55.0323 9.8835 45.1482 0 33 0ZM33 39.7303C23.2416 39.7303 15.302 31.7907 15.302 22.0323C15.302 12.2738 23.2416 4.33422 33 4.33422C42.7593 4.33422 50.6981 12.2738 50.6981 22.0323C50.6981 31.7907 42.7593 39.7303 33 39.7303Z" fill="#806F76"/>
<path d="M48.3836 62.9719L47.3 37.2555L42.9702 37.4375L43.915 59.8526L34.9628 52.1391C33.8439 51.0938 32.1557 51.0924 31.036 52.1391L22.0844 59.8519L23.0293 37.4375L18.6987 37.2555L17.6151 62.9719C17.6143 63.0022 17.6136 63.0326 17.6136 63.0629C17.6136 64.2107 18.2803 65.259 19.3126 65.7328C20.3499 66.2111 21.5418 66.0399 22.4231 65.282L33 56.1693L43.5799 65.2855C44.1289 65.7558 44.8 65.9993 45.4789 65.9993C45.8878 65.9993 46.2988 65.9119 46.6874 65.7327C47.7189 65.2588 48.3858 64.2107 48.3858 63.0628C48.3858 63.0325 48.3851 63.0022 48.3836 62.9719Z" fill="#806F76"/>
<path d="M42.6234 15.4429C41.7767 14.5962 40.4057 14.5962 39.5591 15.4429L30.1206 24.8814L25.7293 20.4367C24.8878 19.585 23.516 19.5764 22.6643 20.4179C21.8126 21.2594 21.804 22.6312 22.6455 23.4829L28.5688 29.4786C28.9748 29.8896 29.5267 30.1214 30.1039 30.123C30.1061 30.123 30.1082 30.123 30.1103 30.123C30.6846 30.123 31.2364 29.8947 31.6431 29.4873L42.6231 18.5073C43.47 17.6612 43.47 16.2887 42.6234 15.4429Z" fill="#806F76"/>
</g>
<defs>
<clipPath id="clip0">
<rect width="66" height="66" fill="white"/>
</clipPath>
</defs>
</svg>
