<svg width="52" height="64" viewBox="0 0 52 64" fill="none" xmlns="http://www.w3.org/2000/svg">
<path d="M49.2657 3.69926H49.3972C50.4189 3.69926 51.2469 2.87127 51.2469 1.84963C51.2469 0.827999 50.4189 0 49.3972 0H6.80173C3.05141 0 0 3.05141 0 6.8027V56.3319C0 60.0827 3.05141 63.1341 6.80173 63.1341H44.4442C48.1954 63.1341 51.2469 60.0827 51.2469 56.3319V16.7083C51.2469 14.8399 50.4897 13.1454 49.2657 11.9152V3.69926ZM6.80173 3.69926H45.5665V10.0005C45.2009 9.93937 44.8266 9.90613 44.4442 9.90613H6.80173C5.09131 9.90613 3.69926 8.51409 3.69926 6.8027C3.69926 5.09131 5.09131 3.69926 6.80173 3.69926ZM47.5476 56.3319C47.5476 58.0428 46.1556 59.4349 44.4442 59.4349H6.80173C5.09131 59.4349 3.69926 58.0428 3.69926 56.3319V12.8559C4.62986 13.3347 5.68521 13.6054 6.80173 13.6054H44.4442C45.1118 13.6054 45.7302 13.8183 46.2374 14.1781C46.2798 14.2133 46.3241 14.246 46.3694 14.2773C47.0861 14.8462 47.5476 15.7243 47.5476 16.7083V56.3319Z" fill="#806F76"/>
<path d="M26 21L29.3677 31.3647H40.2658L31.4491 37.7705L34.8168 48.1353L26 41.7295L17.1832 48.1353L20.5509 37.7705L11.7342 31.3647H22.6323L26 21Z" fill="#806F76"/>
</svg>
