<svg width="35" height="35" viewBox="0 0 35 35" fill="none" xmlns="http://www.w3.org/2000/svg">
<g clip-path="url(#clip0)">
<path d="M14.4944 11.4567C13.7696 11.0236 12.8406 11.5471 12.8406 12.3959V22.6042C12.8406 23.4573 13.771 23.9736 14.4944 23.5448L23.0533 18.448C23.765 18.0236 23.7635 16.994 23.0548 16.5682L14.4944 11.4567ZM15.0281 20.6807V14.3223L20.3583 17.5059L15.0281 20.6807Z" fill="black"/>
<path d="M29.0267 4.77022C22.241 3.76251 12.7619 3.76251 5.97333 4.77022C3.25791 5.17272 1.11853 7.3048 0.651867 10.0727C-0.217299 15.2104 -0.217299 19.791 0.651867 24.9273C1.11853 27.6967 3.25791 29.8273 5.97333 30.2298C9.37416 30.7344 13.4458 30.9867 17.516 30.9867C21.579 30.9867 25.6404 30.7358 29.0281 30.2313C31.7406 29.8288 33.8785 27.6981 34.3481 24.9288C35.2173 19.791 35.2173 15.209 34.3481 10.0713C33.8815 7.3048 31.7421 5.17272 29.0267 4.77022ZM32.1912 24.5642C31.8806 26.3958 30.4806 27.8046 28.7058 28.0671C22.1171 29.0456 12.9004 29.0456 6.29416 28.0656C4.51791 27.8017 3.11645 26.3944 2.80728 24.5627C1.9702 19.6131 1.9702 15.3883 2.80728 10.4358C3.11791 8.60417 4.51791 7.19834 6.29562 6.93292C9.59437 6.44438 13.5479 6.19938 17.4985 6.19938C21.4521 6.19938 25.4056 6.44438 28.7044 6.93292C30.4806 7.19688 31.8821 8.60417 32.1912 10.4358C33.0283 15.3883 33.0283 19.6131 32.1912 24.5642Z" fill="black"/>
</g>
<defs>
<clipPath id="clip0">
<rect width="35" height="35" fill="white"/>
</clipPath>
</defs>
</svg>
